<svg width="652" height="315" viewBox="0 0 652 315" fill="none" xmlns="http://www.w3.org/2000/svg">
<path d="M272.421 34.652C289.977 15.4346 317.509 6.68708 343.365 9.69477C361.105 11.7594 378.069 18.8666 395.9 19.9007C415.233 21.02 434.164 14.9481 452.683 9.28996C471.202 3.63185 490.485 -1.7405 509.68 0.805209C528.876 3.35091 548.072 15.8606 552.444 34.7261C556.446 51.9822 547.535 69.4354 537.901 84.3027C528.266 99.1655 517.209 114.432 516.298 132.124C515.738 143.043 519.176 153.944 518.038 164.818C516.407 180.431 505.364 193.827 492.043 202.135C466.401 218.124 433.809 215.152 404.559 207.565C328.179 187.756 273.706 140.005 259.702 107.238C249.471 83.302 254.862 53.868 272.421 34.652Z" fill="#D3E1CE"/>
<path d="M440.249 267.42C535.597 228.208 584.158 199.306 628.385 148.362C645.909 128.176 659.119 103.65 647.439 87.9776C635.102 71.4238 600.232 71.9968 569.339 79.2609C529.032 88.7381 490.048 106.877 450.443 121.303C410.837 135.728 367.206 146.752 333.097 140.004C294.382 132.345 277.445 104.131 263.108 77.6633C248.771 51.1961 231.844 22.979 193.136 15.3112C155.053 7.7663 102.698 23.6966 66.0569 50.236C29.4156 76.7755 7.86998 111.966 2.45502 143.915C-2.95993 175.864 2.38843 211.063 13.6139 238.358C46.9188 319.342 247.254 346.791 440.249 267.42Z" fill="#E8DFCA"/>
</svg>
