<svg width="652" height="315" viewBox="0 0 652 315" fill="none" xmlns="http://www.w3.org/2000/svg">
<path d="M272.421 34.652C289.976 15.4346 317.509 6.68708 343.364 9.69477C361.105 11.7594 378.069 18.8666 395.9 19.9007C415.233 21.02 434.164 14.9481 452.683 9.28997C471.201 3.63186 490.485 -1.74049 509.68 0.805206C528.876 3.35092 548.072 15.8606 552.444 34.7261C556.446 51.9822 547.535 69.4354 537.901 84.3027C528.266 99.1655 517.209 114.432 516.298 132.124C515.738 143.043 519.176 153.944 518.038 164.818C516.407 180.431 505.364 193.827 492.043 202.135C466.401 218.124 433.809 215.152 404.559 207.565C328.179 187.756 273.706 140.005 259.702 107.238C249.471 83.302 254.862 53.868 272.421 34.652Z" fill="#3D5163"/>
<path d="M440.249 267.42C535.597 228.208 584.158 199.306 628.385 148.362C645.909 128.176 659.119 103.65 647.439 87.9775C635.102 71.4237 600.232 71.9967 569.339 79.2608C529.032 88.738 490.048 106.877 450.442 121.303C410.837 135.728 367.206 146.752 333.096 140.004C294.382 132.345 277.445 104.13 263.108 77.6632C248.771 51.196 231.844 22.9789 193.136 15.3111C155.053 7.76617 102.698 23.6964 66.0568 50.2359C29.4155 76.7754 7.86989 111.966 2.45496 143.915C-2.95999 175.864 2.38836 211.062 13.6139 238.358C46.9187 319.341 247.254 346.79 440.249 267.42Z" fill="#451925"/>
</svg>
