<svg width="569" height="407" viewBox="0 0 569 407" fill="none" xmlns="http://www.w3.org/2000/svg">
<path d="M0.000739111 254.532C0.240246 319.099 59.157 382.82 111.262 390.975C134.25 394.574 137.085 384.409 175.583 384.716C227.966 385.133 241.959 404.104 283.096 406.655C318.489 408.85 373.901 398.887 400.241 359.913C435.261 308.096 398.794 234.733 388.387 213.798C382.246 201.443 333.728 107.465 238.079 92.9347C183.413 84.6297 142.36 106.682 112.26 122.849C71.0365 144.992 -0.264715 183.289 0.000739111 254.532Z" fill="#D3E1CE"/>
<path d="M310.566 355.488C299.608 355.488 288.445 355.187 277.09 354.58C216.645 351.351 161.904 338.701 118.786 318.003C78.07 298.458 47.978 272.05 31.7614 241.633C22.0274 223.374 17.4708 204.126 18.2212 184.422C18.9877 164.26 25.3067 144.097 36.9986 124.49C66.7354 74.6283 107.42 37.846 154.652 18.1186C198.388 -0.147787 245.294 -2.37719 286.731 11.8475C322.782 24.2221 329.363 44.688 336.331 66.3534C342.109 84.3204 348.082 102.9 371.32 119.013C396.219 136.277 423.649 140.734 450.176 145.045C485.382 150.766 518.633 156.169 542.646 190.262C559.05 213.554 560.282 240.487 546.115 266.098C531.006 293.412 499.169 317.113 456.475 332.837C415.897 347.778 365.956 355.486 310.566 355.488ZM230.307 5.1074C205.448 5.1074 180.038 10.2428 155.622 20.4399C108.891 39.9577 68.6195 76.3827 39.1602 125.779C27.6858 145.019 21.4865 164.783 20.7361 184.518C20.0036 203.771 24.4604 222.59 33.9828 240.447C49.9459 270.387 79.6468 296.42 119.876 315.732C162.696 336.288 217.106 348.852 277.224 352.065C345.635 355.722 407.318 348.255 455.603 330.472C497.73 314.958 529.092 291.664 543.909 264.877C557.585 240.156 556.406 214.169 540.586 191.709C517.184 158.482 484.438 153.161 449.771 147.528C422.966 143.173 395.249 138.671 369.883 121.081C345.945 104.481 339.839 85.49 333.933 67.1218C327.165 46.0731 320.773 26.192 285.914 14.2266C268.167 8.13517 249.399 5.1074 230.307 5.1074Z" fill="#F1DBCD"/>
<path d="M555.409 187.155C605.189 257.837 511.093 361.256 290.952 349.493C87.5884 338.625 -10.6774 226.184 51.8738 121.304C114.425 16.4241 218.73 -18.7295 300.115 9.20698C365.155 31.533 332.54 80.2588 384.393 116.217C442.382 156.424 513.568 127.743 555.409 187.155Z" fill="#E8DFCA"/>
<path d="M310.566 355.488C299.608 355.488 288.445 355.187 277.09 354.58C216.645 351.351 161.904 338.701 118.786 318.003C78.07 298.458 47.978 272.05 31.7614 241.633C22.0274 223.374 17.4708 204.126 18.2212 184.422C18.9877 164.26 25.3067 144.097 36.9986 124.49C66.7354 74.6283 107.42 37.846 154.652 18.1186C198.388 -0.147787 245.294 -2.37719 286.731 11.8475C322.782 24.2221 329.363 44.688 336.331 66.3534C342.109 84.3204 348.082 102.9 371.32 119.013C396.219 136.277 423.649 140.734 450.176 145.045C485.382 150.766 518.633 156.169 542.646 190.262C559.05 213.554 560.282 240.487 546.115 266.098C531.006 293.412 499.169 317.113 456.475 332.837C415.897 347.778 365.956 355.486 310.566 355.488ZM230.307 5.1074C205.448 5.1074 180.038 10.2428 155.622 20.4399C108.891 39.9577 68.6195 76.3827 39.1602 125.779C27.6858 145.019 21.4865 164.783 20.7361 184.518C20.0036 203.771 24.4604 222.59 33.9828 240.447C49.9459 270.387 79.6468 296.42 119.876 315.732C162.696 336.288 217.106 348.852 277.224 352.065C345.635 355.722 407.318 348.255 455.603 330.472C497.73 314.958 529.092 291.664 543.909 264.877C557.585 240.156 556.406 214.169 540.586 191.709C517.184 158.482 484.438 153.161 449.771 147.528C422.966 143.173 395.249 138.671 369.883 121.081C345.945 104.481 339.839 85.49 333.933 67.1218C327.165 46.0731 320.773 26.192 285.914 14.2266C268.167 8.13517 249.399 5.1074 230.307 5.1074Z" fill="#D3E1CE"/>
</svg>
