<svg width="382" height="286" viewBox="0 0 382 286" fill="none" xmlns="http://www.w3.org/2000/svg">
<path d="M92.5327 16.417C73.889 32.4875 70.0043 56.3691 64.746 78.2982C58.8315 102.96 50.0298 127.14 38.5053 150.38C23.591 180.454 7.13098 232.418 49.1191 254.498C65.6354 263.184 86.3486 264.221 105.783 262.651C125.216 261.081 144.393 257.171 163.917 256.927C192.058 256.575 219.452 263.829 247.324 267.084C299.999 273.238 376.322 246.598 371.599 193.006C369.371 167.719 346.458 147.693 326.893 128.291C304.882 106.463 287.236 82.8077 269.928 58.3152C258.177 41.6858 244.338 22.6784 222.804 13.7317C187.568 -0.907112 121.981 -8.96473 92.5327 16.417Z" fill="#D3E1CE"/>
<path d="M361.18 71.4437C351.774 58.2555 339.263 46.1863 323.016 38.9901C302.949 30.1031 279.347 29.4223 256.712 27.7659C206.645 24.1011 156.239 14.7466 106.623 21.4411C57.0089 28.1355 6.71091 56.7031 0.648651 98.323C-5.99228 143.913 39.9597 181.343 64.9626 222.259C73.938 236.948 80.6398 253.025 94.0694 265.119C153.385 318.544 229.393 254.404 286.02 233.527C366.472 203.866 410.676 140.836 361.18 71.4437Z" fill="#E8DFCA"/>
</svg>
