<?xml version="1.0" encoding="UTF-8"?>
<svg id="Layer_2" data-name="Layer 2" xmlns="http://www.w3.org/2000/svg" xmlns:xlink="http://www.w3.org/1999/xlink" viewBox="0 0 515.7 257.99">
  <defs>
    <style>
      .cls-1 {
        fill: #d3e1ce;
      }

      .cls-2 {
        fill: none;
      }

      .cls-3 {
        fill: #1f1f1f;
        font-family: Kodchasan-Bold, Kodchasan;
        font-size: 72px;
        font-weight: 700;
      }

      .cls-4 {
        fill: #544f45;
      }

      .cls-5 {
        fill: #fff;
      }

      .cls-5, .cls-6 {
        stroke: #544f45;
        stroke-miterlimit: 10;
      }

      .cls-6 {
        fill: #e8dfca;
        filter: url(#drop-shadow-1);
      }

      .cls-7 {
        letter-spacing: -.02em;
      }

      .cls-8 {
        clip-path: url(#clippath);
      }
    </style>
    <clipPath id="clippath">
      <rect class="cls-2" x="42.52" y="44.27" width="448.24" height="213.72"/>
    </clipPath>
    <filter id="drop-shadow-1" x="6.36" y="0" width="227" height="249" filterUnits="userSpaceOnUse">
      <feOffset dx="1.42" dy="2.13"/>
      <feGaussianBlur result="blur" stdDeviation="2.13"/>
      <feFlood flood-color="#333" flood-opacity=".5"/>
      <feComposite in2="blur" operator="in"/>
      <feComposite in="SourceGraphic"/>
    </filter>
  </defs>
  <g id="Layer_8" data-name="Layer 8">
    <g>
      <g>
        <g class="cls-8">
          <path class="cls-1" d="M364.62,253.14C224.91,282.2,80.78,176.45,42.52,44.27c8.64,7.04,17.38,14.77,26.36,21.53,67.16,52.95,147.57,81.13,227.54,30.95,38.52-19.12,79.85-43.86,124.35-35.82,32.16,5.11,61.59,28.28,67.59,61.44,8.29,33.42-5.64,59.32-30,84.87-24.21,25.24-59.74,38.15-93.4,45.86l-.36.07.02-.02Z"/>
        </g>
        <text class="cls-3" transform="translate(223.96 185.1)"><tspan x="0" y="0">Sig</tspan><tspan class="cls-7" x="117.93" y="0">no</tspan><tspan x="208.15" y="0">ns</tspan></text>
      </g>
      <g>
        <g>
          <path class="cls-5" d="M10.63,195.76c-7.41-5.54,1.63-7.27,6.85-6.06,12.13,1.78,48.47,5.54,66.35,5.24,19.05-.44,15.97-9.96,1.23-20.15-.41-.29-.79-.55-1.1-.76-.71-.49-1.03-.71-1.13-.8-.8-1.91-66.28-40.86-69.92-55.35-.2-.81.24-1.66,1-2,2.9-1.29,7.16,2.18,9.54,3.4,3.89,2.32,9.31,5.34,13.93,7.84,17.62,8.92,39.37,20.19,59.84,23.59,17.93,1.36,8.83-16.9,2.68-25.84-.04-.9-87.63-92.03-61.38-88.79,4.77,1.92,7.68,6.7,11.16,10.37,18.37,20.68,41.56,46.35,62.29,65.65,16.91,16.61,28.05,15.23,26.42-11.08-.58-6.28-16.13-74.68-13.6-90.51,1.61-6.35,6.46-7.65,8.95-.96,1.01,3.76,4.54,26.34,6.51,37.08.06,2.47,17.96,78.91,33.16,85.74,5.68,2.07,8.55-8.5,10.22-12.64,9.41-26.21,30.24-50.72,39.26-54.51,6-3.6,9.41-1.27,5.96,5.31-22.42,32.59-31.08,74.43-21.54,111.32,6.54,36.7-3.03,56.67-27.6,61.07-12.62,2.08-25.52-.46-36.75-6.73-60.8-34.45-126.14-36.8-132.34-40.42Z"/>
          <path class="cls-6" d="M219.22,205.56c7.87-4.86-.98-7.39-6.28-6.64-12.24.69-48.77,1.21-66.55-.67-18.93-2.13-15.02-11.34.57-20.18.43-.25.83-.47,1.16-.66.75-.42,1.09-.62,1.19-.7.97-1.83,69.65-34.81,74.56-48.92.28-.79-.09-1.68-.82-2.08-2.77-1.54-7.33,1.54-9.81,2.54-4.08,1.97-9.75,4.49-14.58,6.57-18.34,7.32-41.01,16.62-61.7,18.18-17.98-.24-7.3-17.61-.37-25.98.12-.89,95.46-83.89,69.02-82.99-4.92,1.49-8.24,6-12.04,9.33-20.13,18.96-45.51,42.47-67.88,59.85-18.32,15.04-29.29,12.67-25.33-13.38,1.13-6.2,22.7-72.95,21.59-88.95-1.04-6.47-5.76-8.19-8.83-1.75-1.34,3.66-6.86,25.83-9.77,36.36-.28,2.46-24.9,77-40.64,82.46-5.84,1.56-7.77-9.22-9.06-13.49-7.05-26.95-25.62-53.21-34.27-57.78-5.66-4.12-9.26-2.1-6.41,4.76,19.44,34.45,24.35,76.9,11.57,112.79-9.78,35.98-2.01,56.72,22.07,63.28,12.39,3.2,25.46,1.81,37.2-3.44,63.62-28.92,128.91-25.46,135.41-28.51Z"/>
          <path class="cls-4" d="M93.96,145.8c1.97-5.97,7.94-10.52,14.25-10.66-6.07,1.64-10.92,5.34-14.25,10.66h0Z"/>
          <path class="cls-4" d="M74.12,133.21c-.7-4.8,1.91-10.17,6.52-12.05-3.71,3.09-5.73,7.29-6.52,12.05h0Z"/>
          <path class="cls-4" d="M110.29,168.35c2.39-4.72,8.08-7.66,13.31-6.74-5.26.6-9.69,2.9-13.31,6.74h0Z"/>
          <path class="cls-4" d="M118.75,203.32c2.7-3.26,7.82-4.39,11.61-2.47-4.21-.46-7.94.37-11.61,2.47h0Z"/>
        </g>
        <g>
          <path class="cls-4" d="M2.16,56.36c4.05-14.77,15.12-26.74,29.81-31.33.95-.29,1.91-.57,2.87-.84-.92.37-1.85.74-2.78,1.09-14.5,5.82-24.35,16.58-29.9,31.08h0Z"/>
          <path class="cls-4" d="M0,47.47c2.76-10.93,11.21-20.06,22.08-23.25.71-.21,1.42-.41,2.14-.59-.68.29-1.36.57-2.05.84C11.65,28.78,4.15,36.95,0,47.47h0Z"/>
        </g>
        <g>
          <path class="cls-4" d="M223.76,47.32c13.71,6.93,23.27,20.21,24.85,35.56.1,1,.18,1.99.26,2.99-.18-.98-.36-1.97-.52-2.95-2.83-15.42-11.43-27.24-24.59-35.6h0Z"/>
          <path class="cls-4" d="M232.94,46.97c10.19,4.9,17.48,15.02,18.45,26.35.06.74.11,1.48.16,2.22-.15-.73-.29-1.45-.42-2.18-2.14-11.21-8.68-20.2-18.19-26.39h0Z"/>
        </g>
      </g>
    </g>
  </g>
</svg>