<?xml version="1.0" encoding="UTF-8"?>
<svg id="Layer_2" data-name="Layer 2" xmlns="http://www.w3.org/2000/svg" xmlns:xlink="http://www.w3.org/1999/xlink" viewBox="0 0 263.31 283.5">
  <defs>
    <style>
      .cls-1 {
        fill: #d3e1ce;
      }

      .cls-2 {
        fill: #1f1f1f;
        font-family: Kodchasan-Bold, Kodchasan;
        font-size: 47.91px;
        font-weight: 700;
      }

      .cls-3 {
        fill: #544f45;
      }

      .cls-4 {
        fill: #fff;
      }

      .cls-4, .cls-5 {
        stroke: #544f45;
        stroke-miterlimit: 10;
      }

      .cls-5 {
        fill: #e8dfca;
        filter: url(#drop-shadow-1);
      }
    </style>
    <filter id="drop-shadow-1" x="35.4" y="0" width="195" height="213" filterUnits="userSpaceOnUse">
      <feOffset dx="1.42" dy="2.13"/>
      <feGaussianBlur result="blur" stdDeviation="2.13"/>
      <feFlood flood-color="#333" flood-opacity=".5"/>
      <feComposite in2="blur" operator="in"/>
      <feComposite in="SourceGraphic"/>
    </filter>
  </defs>
  <g id="Layer_8" data-name="Layer 8">
    <g>
      <path class="cls-1" d="M190.36,206.59C117.41,233.28,31.24,191.55,0,127.34c5.23,2.86,10.55,6.07,15.93,8.74,40.44,21.32,86.03,28.88,125.1-3.52,19.22-13.03,39.51-29.16,64.13-28.84,17.74-.11,35.47,9.21,41.36,25.62,7.15,16.35,1.73,30.75-9.34,45.85-11.02,14.93-29.12,24.54-46.64,31.33l-.18.07Z"/>
      <g>
        <g>
          <path class="cls-4" d="M40.72,166.73c-6.26-4.68,1.38-6.14,5.78-5.12,10.24,1.5,40.93,4.68,56.03,4.42,16.09-.37,13.48-8.41,1.04-17.01-.35-.24-.66-.46-.93-.64-.6-.41-.87-.6-.95-.67-.68-1.61-55.97-34.5-59.04-46.74-.17-.69.2-1.4.85-1.69,2.45-1.09,6.05,1.84,8.06,2.87,3.28,1.96,7.86,4.51,11.77,6.62,14.88,7.53,33.24,17.05,50.53,19.92,15.14,1.15,7.46-14.27,2.26-21.82-.03-.76-74-77.72-51.83-74.98,4.03,1.63,6.49,5.66,9.42,8.75,15.51,17.46,35.1,39.14,52.6,55.43,14.28,14.02,23.69,12.86,22.31-9.35-.49-5.3-13.62-63.06-11.49-76.43,1.36-5.36,5.46-6.46,7.56-.81.85,3.18,3.83,22.24,5.49,31.31.05,2.09,15.17,66.63,28,72.4,4.79,1.75,7.22-7.17,8.63-10.67,7.95-22.14,25.54-42.83,33.15-46.03,5.07-3.04,7.95-1.07,5.04,4.49-18.93,27.52-26.24,62.85-18.19,94,5.53,30.99-2.56,47.85-23.31,51.57-10.66,1.76-21.55-.39-31.03-5.68-51.34-29.09-106.52-31.08-111.75-34.13Z"/>
          <path class="cls-5" d="M216.86,175.01c6.65-4.1-.83-6.24-5.3-5.61-10.33.58-41.18,1.03-56.2-.57-15.99-1.8-12.68-9.57.48-17.04.37-.21.7-.4.98-.56.64-.36.92-.52,1.01-.59.82-1.55,58.82-29.4,62.96-41.31.23-.67-.07-1.42-.69-1.76-2.34-1.3-6.19,1.3-8.28,2.14-3.44,1.66-8.23,3.8-12.31,5.55-15.49,6.18-34.63,14.03-52.1,15.35-15.18-.2-6.16-14.87-.31-21.94.1-.76,80.61-70.84,58.28-70.08-4.16,1.26-6.96,5.06-10.16,7.88-17,16.01-38.43,35.87-57.32,50.54-15.47,12.7-24.74,10.7-21.39-11.3.96-5.24,19.16-61.6,18.23-75.11-.88-5.46-4.86-6.92-7.46-1.48-1.13,3.09-5.79,21.81-8.25,30.7-.23,2.08-21.03,65.02-34.32,69.63-4.93,1.32-6.56-7.79-7.65-11.4-5.95-22.75-21.63-44.93-28.94-48.79-4.78-3.48-7.82-1.77-5.41,4.02,16.41,29.09,20.56,64.93,9.77,95.24-8.26,30.38-1.7,47.89,18.64,53.44,10.46,2.7,21.5,1.53,31.41-2.9,53.72-24.42,108.86-21.5,114.34-24.07Z"/>
          <path class="cls-3" d="M111.09,124.54c1.55-5.09,6.69-9,12.04-9-5.11,1.51-9.11,4.56-12.04,9h0Z"/>
          <path class="cls-3" d="M94.33,113.91c-.72-4.05,1.57-8.71,5.51-10.18-3.06,2.7-4.73,6.17-5.51,10.18h0Z"/>
          <path class="cls-3" d="M124.88,143.59c1.92-4.05,6.83-6.59,11.24-5.69-4.44.63-8.09,2.52-11.24,5.69h0Z"/>
          <path class="cls-3" d="M132.02,173.11c2.2-2.84,6.64-3.83,9.8-2.09-3.58-.27-6.63.41-9.8,2.09h0Z"/>
        </g>
        <g>
          <path class="cls-3" d="M33.57,49.01c3.28-12.48,12.76-22.72,25.16-26.48.81-.24,1.62-.47,2.43-.69-.78.32-1.56.64-2.34.94-12.07,4.89-20.57,14.15-25.25,26.23h0Z"/>
          <path class="cls-3" d="M31.74,41.5c2.21-9.25,9.44-17.06,18.64-19.66.6-.17,1.21-.33,1.81-.48-.99.42-2.43,1.04-3.4,1.52-7.93,3.66-13.79,10.59-17.05,18.61h0Z"/>
        </g>
        <g>
          <path class="cls-3" d="M220.7,41.38c11.61,5.72,19.79,17.08,21,30.02.08.84.14,1.69.2,2.53-.16-.83-.32-1.66-.46-2.49-2.4-12.85-9.81-23.05-20.74-30.06h0Z"/>
          <path class="cls-3" d="M228.45,41.08c8.65,4.02,14.88,12.69,15.6,22.24.05.63.08,1.25.11,1.88-.21-1.06-.54-2.59-.82-3.65-2.02-8.53-7.66-15.67-14.89-20.47h0Z"/>
        </g>
      </g>
      <text class="cls-2" transform="translate(41.53 239.46) rotate(18.91)"><tspan x="0" y="0">S</tspan></text>
      <text class="cls-2" transform="translate(75.38 250.31) rotate(12.54)"><tspan x="0" y="0">i</tspan></text>
      <text class="cls-2" transform="translate(88.05 253.54) rotate(7.27)"><tspan x="0" y="0">g</tspan></text>
      <text class="cls-2" transform="translate(121.24 257.56) rotate(.5)"><tspan x="0" y="0">n</tspan></text>
      <text class="cls-2" transform="translate(151.67 257.83) rotate(-6.28)"><tspan x="0" y="0">o</tspan></text>
      <text class="cls-2" transform="translate(184.68 254.08) rotate(-13.67)"><tspan x="0" y="0">n</tspan></text>
      <text class="cls-2" transform="translate(215.64 246.32) rotate(-21.86)"><tspan x="0" y="0">s</tspan></text>
    </g>
  </g>
</svg>