<?xml version="1.0" encoding="UTF-8"?>
<svg id="Layer_2" data-name="Layer 2" xmlns="http://www.w3.org/2000/svg" xmlns:xlink="http://www.w3.org/1999/xlink" viewBox="0 0 249.76 267.59">
  <defs>
    <style>
      .cls-1 {
        fill: #d3e1ce;
      }

      .cls-2 {
        fill: #1f1f1f;
      }

      .cls-3 {
        fill: #544f45;
      }

      .cls-4 {
        fill: #fff;
      }

      .cls-4, .cls-5 {
        stroke: #544f45;
        stroke-miterlimit: 10;
      }

      .cls-5 {
        fill: #e8dfca;
        filter: url(#drop-shadow-1);
      }
    </style>
    <filter id="drop-shadow-1" x="35.4" y="0" width="195" height="213" filterUnits="userSpaceOnUse">
      <feOffset dx="1.42" dy="2.13"/>
      <feGaussianBlur result="blur" stdDeviation="2.13"/>
      <feFlood flood-color="#333" flood-opacity=".5"/>
      <feComposite in2="blur" operator="in"/>
      <feComposite in="SourceGraphic"/>
    </filter>
  </defs>
  <g id="Layer_8" data-name="Layer 8">
    <g>
      <path class="cls-1" d="M190.36,206.59C117.41,233.28,31.24,191.55,0,127.34c5.23,2.86,10.55,6.07,15.93,8.74,40.44,21.32,86.03,28.88,125.1-3.52,19.22-13.03,39.51-29.16,64.13-28.84,17.74-.11,35.47,9.21,41.36,25.62,7.15,16.35,1.73,30.75-9.34,45.85-11.02,14.93-29.12,24.54-46.64,31.33l-.18.07Z"/>
      <g>
        <g>
          <path class="cls-4" d="M40.72,166.73c-6.26-4.68,1.38-6.14,5.78-5.12,10.24,1.5,40.93,4.68,56.03,4.42,16.09-.37,13.48-8.41,1.04-17.01-.35-.24-.66-.46-.93-.64-.6-.41-.87-.6-.95-.67-.68-1.61-55.97-34.5-59.04-46.74-.17-.69.2-1.4.85-1.69,2.45-1.09,6.05,1.84,8.06,2.87,3.28,1.96,7.86,4.51,11.77,6.62,14.88,7.53,33.24,17.05,50.53,19.92,15.14,1.15,7.46-14.27,2.26-21.82-.03-.76-74-77.72-51.83-74.98,4.03,1.63,6.49,5.66,9.42,8.75,15.51,17.46,35.1,39.14,52.6,55.43,14.28,14.02,23.69,12.86,22.31-9.35-.49-5.3-13.62-63.06-11.49-76.43,1.36-5.36,5.46-6.46,7.56-.81.85,3.18,3.83,22.24,5.49,31.31.05,2.09,15.17,66.63,28,72.4,4.79,1.75,7.22-7.17,8.63-10.67,7.95-22.14,25.54-42.83,33.15-46.03,5.07-3.04,7.95-1.07,5.04,4.49-18.93,27.52-26.24,62.85-18.19,94,5.53,30.99-2.56,47.85-23.31,51.57-10.66,1.76-21.55-.39-31.03-5.68-51.34-29.09-106.52-31.08-111.75-34.13Z"/>
          <path class="cls-5" d="M216.86,175.01c6.65-4.1-.83-6.24-5.3-5.61-10.33.58-41.18,1.03-56.2-.57-15.99-1.8-12.68-9.57.48-17.04.37-.21.7-.4.98-.56.64-.36.92-.52,1.01-.59.82-1.55,58.82-29.4,62.96-41.31.23-.67-.07-1.42-.69-1.76-2.34-1.3-6.19,1.3-8.28,2.14-3.44,1.66-8.23,3.8-12.31,5.55-15.49,6.18-34.63,14.03-52.1,15.35-15.18-.2-6.16-14.87-.31-21.94.1-.76,80.61-70.84,58.28-70.08-4.16,1.26-6.96,5.06-10.16,7.88-17,16.01-38.43,35.87-57.32,50.54-15.47,12.7-24.74,10.7-21.39-11.3.96-5.24,19.16-61.6,18.23-75.11-.88-5.46-4.86-6.92-7.46-1.48-1.13,3.09-5.79,21.81-8.25,30.7-.23,2.08-21.03,65.02-34.32,69.63-4.93,1.32-6.56-7.79-7.65-11.4-5.95-22.75-21.63-44.93-28.94-48.79-4.78-3.48-7.82-1.77-5.41,4.02,16.41,29.09,20.56,64.93,9.77,95.24-8.26,30.38-1.7,47.89,18.64,53.44,10.46,2.7,21.5,1.53,31.41-2.9,53.72-24.42,108.86-21.5,114.34-24.07Z"/>
          <path class="cls-3" d="M111.09,124.54c1.55-5.09,6.69-9,12.04-9-5.11,1.51-9.11,4.56-12.04,9h0Z"/>
          <path class="cls-3" d="M94.33,113.91c-.72-4.05,1.57-8.71,5.51-10.18-3.06,2.7-4.73,6.17-5.51,10.18h0Z"/>
          <path class="cls-3" d="M124.88,143.59c1.92-4.05,6.83-6.59,11.24-5.69-4.44.63-8.09,2.52-11.24,5.69h0Z"/>
          <path class="cls-3" d="M132.02,173.11c2.2-2.84,6.64-3.83,9.8-2.09-3.58-.27-6.63.41-9.8,2.09h0Z"/>
        </g>
        <g>
          <path class="cls-3" d="M33.57,49.01c3.28-12.48,12.76-22.72,25.16-26.48.81-.24,1.62-.47,2.43-.69-.78.32-1.56.64-2.34.94-12.07,4.89-20.57,14.15-25.25,26.23h0Z"/>
          <path class="cls-3" d="M31.74,41.5c2.21-9.25,9.44-17.06,18.64-19.66.6-.17,1.21-.33,1.81-.48-.99.42-2.43,1.04-3.4,1.52-7.93,3.66-13.79,10.59-17.05,18.61h0Z"/>
        </g>
        <g>
          <path class="cls-3" d="M220.7,41.38c11.61,5.72,19.79,17.08,21,30.02.08.84.14,1.69.2,2.53-.16-.83-.32-1.66-.46-2.49-2.4-12.85-9.81-23.05-20.74-30.06h0Z"/>
          <path class="cls-3" d="M228.45,41.08c8.65,4.02,14.88,12.69,15.6,22.24.05.63.08,1.25.11,1.88-.21-1.06-.54-2.59-.82-3.65-2.02-8.53-7.66-15.67-14.89-20.47h0Z"/>
        </g>
      </g>
      <g>
        <path class="cls-2" d="M51.39,241.7c-2.26-1.87-4.03-4.05-5.3-6.55-.3-.61-.35-1.2-.15-1.77.23-.66.75-1.2,1.56-1.59.65-.32,1.26-.38,1.83-.18.6.21,1.21.8,1.82,1.79.97,1.79,2.32,3.37,4.02,4.75,1.71,1.38,3.6,2.42,5.69,3.14,1.99.68,3.67.88,5.02.58,1.35-.3,2.24-1.06,2.66-2.3.44-1.3.2-2.56-.73-3.77-.93-1.21-2.74-2.64-5.43-4.26-4.22-2.56-7.09-5.01-8.6-7.35-1.51-2.34-1.83-4.79-.95-7.36.56-1.63,1.6-2.9,3.13-3.81,1.53-.91,3.39-1.39,5.58-1.43,2.19-.04,4.54.37,7.05,1.22,2.81.96,5.15,2.28,7.03,3.95,1.87,1.67,3.1,3.54,3.68,5.59.17.77.19,1.38.03,1.83-.29.75-.89,1.27-1.8,1.56-.49.14-.99.12-1.5-.06-.94-.32-1.58-.95-1.94-1.88-.51-1.36-1.4-2.59-2.66-3.7-1.26-1.11-2.75-1.96-4.47-2.54-2.15-.74-3.93-.98-5.34-.74-1.42.24-2.32.94-2.71,2.08-.39,1.15-.14,2.29.77,3.43.91,1.14,2.69,2.53,5.33,4.18,2.91,1.84,5.17,3.57,6.78,5.18s2.63,3.22,3.08,4.83c.45,1.6.36,3.31-.26,5.13-.59,1.72-1.62,3.06-3.1,4.03-1.48.96-3.28,1.48-5.39,1.55-2.12.07-4.41-.32-6.89-1.17-2.96-1.01-5.57-2.46-7.83-4.33Z"/>
        <path class="cls-2" d="M79.24,250.87c-.42-.62-.53-1.36-.34-2.23l4.06-18.24c.19-.87.61-1.5,1.25-1.88.64-.38,1.44-.46,2.41-.25.94.21,1.63.62,2.08,1.25.45.62.58,1.37.38,2.25l-4.06,18.24c-.19.87-.63,1.5-1.3,1.87-.67.37-1.48.46-2.41.25-.97-.22-1.66-.63-2.08-1.25ZM84.65,223.78c-.56-.79-.72-1.71-.5-2.74.23-1.03.76-1.79,1.61-2.27.84-.48,1.84-.6,3-.34,1.15.26,2.02.79,2.62,1.59.59.8.77,1.72.54,2.75-.23,1.03-.78,1.78-1.66,2.26-.88.48-1.89.59-3.04.33-1.15-.26-2.01-.78-2.57-1.58Z"/>
        <path class="cls-2" d="M95.72,265.48c-1.98-.99-3.48-2.2-4.49-3.62-.38-.53-.54-1.1-.46-1.7.1-.79.57-1.46,1.41-1.99.52-.32,1.05-.45,1.59-.38.82.11,1.68.68,2.58,1.73.67.79,1.56,1.46,2.67,2.01,1.11.54,2.32.9,3.65,1.07,2.47.31,4.48-.19,6.04-1.5,1.55-1.32,2.46-3.29,2.74-5.93l.2-1.91c-1.24,1.13-2.62,1.9-4.14,2.32-1.52.42-3.32.49-5.41.23-3.9-.5-6.8-1.95-8.71-4.37-1.91-2.42-2.63-5.53-2.14-9.33.48-3.8,1.98-6.63,4.49-8.48,2.51-1.85,5.76-2.53,9.75-2.02,1.65.21,3.19.75,4.62,1.6s2.68,1.97,3.73,3.33l.12-.95c.11-.89.49-1.55,1.12-1.98.63-.43,1.43-.59,2.38-.47s1.67.46,2.16,1.02c.49.56.68,1.3.56,2.22l-2.5,19.58c-.32,2.53-1.16,4.73-2.51,6.59s-3.12,3.22-5.3,4.1c-2.19.88-4.68,1.14-7.46.79-2.47-.32-4.7-.97-6.68-1.96ZM110.01,249.87c1.56-1.09,2.48-2.76,2.76-5.01s-.19-4.1-1.42-5.54c-1.23-1.44-3.08-2.33-5.55-2.64-2.31-.29-4.2.11-5.66,1.21-1.46,1.1-2.33,2.78-2.62,5.03-.29,2.25.14,4.09,1.28,5.52,1.14,1.43,2.86,2.3,5.17,2.59,2.47.32,4.48-.07,6.04-1.16Z"/>
        <path class="cls-2" d="M124.26,257.3c-.54-.52-.8-1.22-.8-2.12l.16-18.68c0-.93.28-1.63.81-2.12.53-.49,1.28-.73,2.23-.72.96,0,1.71.27,2.25.79.54.52.8,1.22.8,2.12v1.39c2.28-2.82,5.39-4.22,9.32-4.18,3.07.03,5.48,1.01,7.23,2.96,1.76,1.95,2.62,4.58,2.59,7.9l-.09,10.78c0,.89-.3,1.59-.88,2.1-.58.51-1.35.75-2.31.75-.99,0-1.75-.27-2.29-.79-.54-.51-.8-1.22-.8-2.12l.09-10.78c.02-1.82-.42-3.24-1.3-4.27-.89-1.03-2.13-1.55-3.72-1.57-2.43-.02-4.32.67-5.67,2.08-1.35,1.41-2.04,3.39-2.06,5.95l-.07,8.48c0,.89-.3,1.59-.88,2.1s-1.35.75-2.31.75c-.99,0-1.75-.27-2.29-.79Z"/>
        <path class="cls-2" d="M160.11,255.87c-2.25-.76-4.08-2-5.49-3.71-1.41-1.71-2.25-3.77-2.51-6.18-.27-2.41.1-4.61,1.11-6.58,1-1.97,2.52-3.58,4.55-4.81,2.03-1.24,4.43-2.01,7.19-2.31,2.76-.3,5.27-.07,7.52.69,2.25.76,4.08,2,5.49,3.71,1.41,1.71,2.25,3.77,2.51,6.18.27,2.41-.1,4.61-1.11,6.58-1,1.97-2.52,3.58-4.55,4.81-2.03,1.24-4.43,2.01-7.19,2.31-2.76.3-5.27.07-7.52-.69ZM172.66,249.07c1.27-1.42,1.79-3.26,1.54-5.52-.25-2.25-1.15-3.94-2.7-5.05-1.55-1.11-3.55-1.54-6-1.27-2.44.27-4.3,1.12-5.58,2.54-1.27,1.43-1.79,3.27-1.54,5.52s1.15,3.94,2.7,5.05c1.55,1.12,3.55,1.54,6,1.27,2.44-.27,4.3-1.12,5.58-2.54Z"/>
        <path class="cls-2" d="M187.54,253.09c-.65-.37-1.08-.99-1.29-1.86l-4.42-18.15c-.22-.9-.13-1.65.26-2.26.39-.61,1.06-1.02,1.99-1.25.93-.23,1.72-.15,2.37.21.65.37,1.08.99,1.29,1.86l.33,1.35c1.53-3.3,4.21-5.41,8.02-6.34,2.98-.72,5.56-.36,7.74,1.1,2.18,1.46,3.66,3.8,4.45,7.03l2.55,10.47c.21.87.1,1.62-.34,2.25-.44.63-1.12,1.06-2.05,1.29-.96.23-1.77.17-2.42-.2-.65-.37-1.08-.99-1.29-1.86l-2.55-10.47c-.43-1.77-1.2-3.04-2.31-3.83-1.11-.78-2.44-.98-3.99-.61-2.36.57-4.02,1.71-4.99,3.41-.97,1.7-1.15,3.79-.54,6.27l2,8.24c.21.87.1,1.62-.34,2.25-.44.63-1.12,1.06-2.05,1.29-.96.23-1.77.17-2.42-.2Z"/>
        <path class="cls-2" d="M216.47,241.7c-.72-.43-1.19-.9-1.39-1.4-.29-.71-.16-1.48.36-2.31.37-.53.8-.89,1.27-1.08.65-.26,1.37-.22,2.16.11,1.41.6,2.69.93,3.82.97,1.14.04,2.42-.22,3.84-.79,1.21-.49,2.17-1.06,2.87-1.72.7-.66.95-1.23.76-1.7-.24-.59-.78-.96-1.63-1.1s-2.44-.12-4.78.06c-3.67.3-6.4.17-8.21-.4-1.81-.57-3.05-1.68-3.71-3.34-.75-1.87-.54-3.66.64-5.37s3.17-3.13,5.98-4.26c2.16-.87,4.25-1.33,6.26-1.38s3.64.31,4.88,1.09c.59.35.98.78,1.18,1.28.29.71.16,1.43-.37,2.16-.37.53-.83.9-1.36,1.11-.86.34-1.79.3-2.79-.12-.82-.32-1.75-.45-2.81-.37-1.05.08-2.13.34-3.22.78-2.08.83-2.92,1.74-2.52,2.72.16.39.45.66.9.83.45.17,1.16.24,2.13.23s2.48-.1,4.51-.26c3.26-.28,5.69-.11,7.29.48,1.6.6,2.75,1.77,3.45,3.52.75,1.87.49,3.72-.77,5.55-1.26,1.83-3.45,3.37-6.56,4.62-4.77,1.92-8.84,1.95-12.2.09Z"/>
      </g>
    </g>
  </g>
</svg>