<?xml version="1.0" encoding="UTF-8"?>
<svg id="Layer_2" data-name="Layer 2" xmlns="http://www.w3.org/2000/svg" xmlns:xlink="http://www.w3.org/1999/xlink" viewBox="0 0 209.3 217.16">
  <defs>
    <style>
      .cls-1 {
        fill: #d3e1ce;
      }

      .cls-2 {
        fill: #333;
        font-family: LibreBaskerville-Bold, 'Libre Baskerville';
        font-size: 38.08px;
        font-weight: 700;
      }

      .cls-3 {
        fill: #544f45;
      }

      .cls-4 {
        fill: #fff;
      }

      .cls-4, .cls-5 {
        stroke: #544f45;
        stroke-miterlimit: 10;
      }

      .cls-5 {
        fill: #e8dfca;
        filter: url(#drop-shadow-1);
      }
    </style>
    <filter id="drop-shadow-1" x="26.89" y="0" width="158" height="173" filterUnits="userSpaceOnUse">
      <feOffset dx="1.42" dy="2.13"/>
      <feGaussianBlur result="blur" stdDeviation="2.13"/>
      <feFlood flood-color="#333" flood-opacity=".5"/>
      <feComposite in2="blur" operator="in"/>
      <feComposite in="SourceGraphic"/>
    </filter>
  </defs>
  <g id="Layer_2-2" data-name="Layer 2">
    <path class="cls-1" d="M151.31,165.32C93.33,186.54,24.83,153.36,0,102.33c4.15,2.27,8.39,4.82,12.66,6.95,32.15,16.95,68.39,22.96,99.44-2.8,15.28-10.35,31.4-23.18,50.98-22.92,14.1-.09,28.19,7.32,32.88,20.36,5.68,13,1.37,24.44-7.43,36.44-8.76,11.87-23.15,19.51-37.08,24.9l-.14.05Z"/>
  </g>
  <g id="Layer_6" data-name="Layer 6">
    <g>
      <g>
        <path class="cls-4" d="M32.37,133.64c-4.97-3.72,1.09-4.88,4.6-4.07,8.14,1.19,32.53,3.72,44.54,3.52,12.79-.29,10.72-6.69.82-13.52-.27-.19-.53-.37-.74-.51-.48-.33-.69-.48-.76-.54-.54-1.28-44.49-27.43-46.93-37.15-.14-.55.16-1.12.67-1.34,1.95-.87,4.81,1.46,6.4,2.28,2.61,1.56,6.25,3.59,9.35,5.26,11.83,5.99,26.43,13.55,40.17,15.83,12.03.91,5.93-11.34,1.8-17.35-.02-.61-58.82-61.77-41.2-59.6,3.2,1.29,5.15,4.5,7.49,6.96,12.33,13.88,27.9,31.11,41.81,44.06,11.35,11.15,18.83,10.22,17.73-7.43-.39-4.21-10.82-50.12-9.13-60.75,1.08-4.26,4.34-5.14,6.01-.64.68,2.53,3.04,17.68,4.37,24.89.04,1.66,12.06,52.96,22.26,57.55,3.81,1.39,5.74-5.7,6.86-8.48,6.32-17.6,20.3-34.04,26.35-36.59,4.03-2.42,6.32-.85,4,3.57-15.05,21.87-20.86,49.96-14.46,74.72,4.39,24.63-2.03,38.04-18.53,40.99-8.47,1.4-17.13-.31-24.67-4.52-40.81-23.13-84.67-24.7-88.83-27.13Z"/>
        <path class="cls-5" d="M172.38,140.22c5.28-3.26-.66-4.96-4.22-4.46-8.21.46-32.73.82-44.67-.45-12.71-1.43-10.08-7.61.38-13.54.29-.17.56-.32.78-.44.51-.29.73-.41.8-.47.65-1.23,46.75-23.37,50.05-32.84.18-.53-.06-1.13-.55-1.4-1.86-1.03-4.92,1.03-6.58,1.7-2.74,1.32-6.54,3.02-9.78,4.41-12.31,4.91-27.52,11.15-41.42,12.2-12.07-.16-4.9-11.82-.25-17.44.08-.6,64.07-56.31,46.33-55.7-3.31,1-5.53,4.02-8.08,6.27-13.51,12.73-30.55,28.51-45.56,40.17-12.29,10.09-19.66,8.51-17-8.98.76-4.16,15.23-48.96,14.49-59.7-.7-4.34-3.86-5.5-5.93-1.18-.9,2.46-4.6,17.34-6.56,24.41-.19,1.65-16.71,51.68-27.28,55.35-3.92,1.05-5.21-6.19-6.08-9.06-4.73-18.09-17.2-35.71-23-38.79-3.8-2.77-6.22-1.41-4.3,3.2,13.05,23.12,16.34,51.61,7.77,75.71-6.56,24.15-1.35,38.07,14.82,42.48,8.31,2.14,17.09,1.21,24.97-2.31,42.7-19.41,86.53-17.09,90.89-19.14Z"/>
        <path class="cls-3" d="M88.3,100.1c1.09-4.11,5.29-7.31,9.57-7.15-4.04,1.35-7.11,3.69-9.57,7.15h0Z"/>
        <path class="cls-3" d="M74.98,91.65c-.73-3.22,1.17-7.06,4.38-8.09-2.39,2.33-3.58,4.88-4.38,8.09h0Z"/>
        <path class="cls-3" d="M99.26,115.24c1.4-3.31,5.43-5.4,8.94-4.53-3.53.65-6.3,2.09-8.94,4.53h0Z"/>
        <path class="cls-3" d="M104.94,138.71c1.65-2.38,5.32-3.19,7.79-1.66-2.89-.07-5.17.44-7.79,1.66h0Z"/>
      </g>
      <g>
        <path class="cls-3" d="M26.68,40.07c2.42-9.9,10.15-18.25,19.99-21.07.65-.19,1.29-.36,1.94-.52-1.06.44-2.61,1.1-3.66,1.62-8.52,3.91-14.82,11.35-18.27,19.98h0Z"/>
        <path class="cls-3" d="M25.23,34.1c1.67-7.86,8.33-14.53,16.25-16.01-7.49,2.93-13.15,8.6-16.25,16.01h0Z"/>
      </g>
      <g>
        <path class="cls-3" d="M175.43,34c9.25,4.36,15.91,13.62,16.72,23.86.05.67.1,1.34.13,2.01-.22-1.13-.56-2.78-.86-3.92-2.14-9.16-8.2-16.84-15.99-21.95h0Z"/>
        <path class="cls-3" d="M181.59,33.76c7.39,3.21,12.62,11.09,12.49,19.17-1.39-7.95-5.83-14.64-12.49-19.17h0Z"/>
      </g>
    </g>
    <text class="cls-2" transform="translate(29.61 191.29) rotate(20.41)"><tspan x="0" y="0">S</tspan></text>
    <text class="cls-2" transform="translate(54.64 200.12) rotate(13.51)"><tspan x="0" y="0">i</tspan></text>
    <text class="cls-2" transform="translate(68.67 203.67) rotate(7.89)"><tspan x="0" y="0">g</tspan></text>
    <text class="cls-2" transform="translate(93.11 207.09) rotate(.7)"><tspan x="0" y="0">n</tspan></text>
    <text class="cls-2" transform="translate(122.36 207.28) rotate(-6.69)"><tspan x="0" y="0">o</tspan></text>
    <text class="cls-2" transform="translate(149.31 204.12) rotate(-15.02)"><tspan x="0" y="0">n</tspan></text>
    <text class="cls-2" transform="translate(177.96 195.94) rotate(-23.73)"><tspan x="0" y="0">s</tspan></text>
  </g>
</svg>