<?xml version="1.0" encoding="UTF-8"?>
<svg id="Layer_2" data-name="Layer 2" xmlns="http://www.w3.org/2000/svg" xmlns:xlink="http://www.w3.org/1999/xlink" viewBox="0 0 513.11 257.99">
  <defs>
    <style>
      .cls-1 {
        fill: #d3e1ce;
      }

      .cls-2 {
        fill: none;
      }

      .cls-3 {
        fill: #1f1f1f;
      }

      .cls-4 {
        fill: #544f45;
      }

      .cls-5 {
        fill: #fff;
      }

      .cls-5, .cls-6 {
        stroke: #544f45;
        stroke-miterlimit: 10;
      }

      .cls-6 {
        fill: #e8dfca;
        filter: url(#drop-shadow-1);
      }

      .cls-7 {
        clip-path: url(#clippath);
      }
    </style>
    <clipPath id="clippath">
      <rect class="cls-2" x="42.52" y="44.27" width="448.24" height="213.72"/>
    </clipPath>
    <filter id="drop-shadow-1" x="6.36" y="0" width="227" height="249" filterUnits="userSpaceOnUse">
      <feOffset dx="1.42" dy="2.13"/>
      <feGaussianBlur result="blur" stdDeviation="2.13"/>
      <feFlood flood-color="#333" flood-opacity=".5"/>
      <feComposite in2="blur" operator="in"/>
      <feComposite in="SourceGraphic"/>
    </filter>
  </defs>
  <g id="Layer_8" data-name="Layer 8">
    <g>
      <g>
        <g class="cls-7">
          <path class="cls-1" d="M364.62,253.14C224.91,282.2,80.78,176.45,42.52,44.27c8.64,7.04,17.38,14.77,26.36,21.53,67.16,52.95,147.57,81.13,227.54,30.95,38.52-19.12,79.85-43.86,124.35-35.82,32.16,5.11,61.59,28.28,67.59,61.44,8.29,33.42-5.64,59.32-30,84.87-24.21,25.24-59.74,38.15-93.4,45.86l-.36.07.02-.02Z"/>
        </g>
        <g>
          <path class="cls-3" d="M239.08,183.48c-4.13-1.56-7.7-3.8-10.73-6.73-.72-.72-1.08-1.54-1.08-2.45,0-1.06.48-2.06,1.44-3.02.77-.77,1.61-1.15,2.52-1.15.96,0,2.11.55,3.46,1.66,2.26,2.06,4.93,3.66,8.03,4.79,3.1,1.13,6.3,1.69,9.61,1.69s5.64-.54,7.42-1.62c1.78-1.08,2.66-2.6,2.66-4.57s-.96-3.73-2.88-5c-1.92-1.27-5.18-2.41-9.79-3.42-7.25-1.58-12.52-3.67-15.8-6.26-3.29-2.59-4.93-5.93-4.93-10.01,0-2.59.86-4.91,2.59-6.95,1.73-2.04,4.14-3.62,7.24-4.75,3.1-1.13,6.63-1.69,10.62-1.69,4.46,0,8.43.73,11.92,2.2,3.48,1.46,6.13,3.52,7.96,6.16.62,1.01.94,1.87.94,2.59-.05,1.2-.65,2.23-1.8,3.1-.62.43-1.34.65-2.16.65-1.49,0-2.71-.58-3.67-1.73-1.39-1.68-3.25-3-5.58-3.96-2.33-.96-4.86-1.44-7.6-1.44-3.41,0-6.06.52-7.96,1.55-1.9,1.03-2.84,2.46-2.84,4.28s.92,3.32,2.77,4.5c1.85,1.18,5.05,2.29,9.61,3.35,5.04,1.2,9.1,2.56,12.17,4.07,3.07,1.51,5.32,3.3,6.73,5.36,1.42,2.06,2.12,4.54,2.12,7.42s-.82,5.15-2.45,7.24c-1.63,2.09-3.94,3.7-6.91,4.82-2.98,1.13-6.43,1.69-10.37,1.69-4.71,0-9.12-.78-13.25-2.34Z"/>
          <path class="cls-3" d="M280.3,143.16c-1.08-.98-1.62-2.27-1.62-3.85s.54-2.87,1.62-3.85c1.08-.98,2.51-1.48,4.28-1.48s3.23.49,4.36,1.48c1.13.98,1.69,2.27,1.69,3.85s-.56,2.87-1.69,3.85c-1.13.98-2.58,1.48-4.36,1.48s-3.2-.49-4.28-1.48ZM281.2,184.67c-.82-.77-1.22-1.82-1.22-3.17v-28.08c0-1.34.41-2.4,1.22-3.17.82-.77,1.97-1.15,3.46-1.15s2.59.38,3.46,1.15c.86.77,1.3,1.83,1.3,3.17v28.08c0,1.34-.43,2.4-1.3,3.17-.86.77-2.02,1.15-3.46,1.15s-2.64-.38-3.46-1.15Z"/>
          <path class="cls-3" d="M307.66,201.44c-3.14-1.1-5.6-2.62-7.38-4.54-.67-.72-1.01-1.54-1.01-2.45,0-1.2.58-2.28,1.73-3.24.72-.58,1.49-.86,2.3-.86,1.25,0,2.64.7,4.18,2.09,1.15,1.06,2.6,1.88,4.36,2.48,1.75.6,3.64.9,5.65.9,3.74,0,6.65-1.13,8.71-3.38,2.06-2.26,3.05-5.38,2.95-9.36l-.07-2.88c-1.63,1.92-3.54,3.34-5.72,4.25-2.18.91-4.86,1.37-8.03,1.37-5.9,0-10.51-1.62-13.82-4.86-3.31-3.24-4.97-7.74-4.97-13.5s1.69-10.26,5.08-13.5c3.38-3.24,8.1-4.86,14.15-4.86,2.5,0,4.9.5,7.2,1.51,2.3,1.01,4.37,2.42,6.19,4.25v-1.44c0-1.34.43-2.4,1.3-3.17.86-.77,2.02-1.15,3.46-1.15s2.58.37,3.42,1.12,1.26,1.81,1.26,3.2v29.66c0,3.84-.83,7.27-2.48,10.3-1.66,3.02-4.03,5.4-7.13,7.13-3.1,1.73-6.76,2.59-10.98,2.59-3.74,0-7.19-.55-10.33-1.66ZM325.98,175.45c2.11-1.92,3.17-4.58,3.17-7.99s-1.06-6.07-3.17-7.99c-2.11-1.92-5.04-2.88-8.78-2.88-3.5,0-6.24.96-8.21,2.88-1.97,1.92-2.95,4.58-2.95,7.99s.98,6.07,2.95,7.99c1.97,1.92,4.7,2.88,8.21,2.88,3.74,0,6.67-.96,8.78-2.88Z"/>
          <path class="cls-3" d="M346.43,184.67c-.82-.77-1.22-1.82-1.22-3.17v-28.08c0-1.39.4-2.46,1.19-3.2s1.91-1.12,3.35-1.12,2.57.38,3.38,1.15c.82.77,1.22,1.83,1.22,3.17v2.09c3.41-4.27,8.06-6.41,13.97-6.41,4.61,0,8.24,1.45,10.91,4.36,2.66,2.91,4,6.85,4,11.84v16.2c0,1.34-.43,2.4-1.3,3.17-.86.77-2.02,1.15-3.46,1.15s-2.64-.38-3.46-1.15c-.82-.77-1.22-1.82-1.22-3.17v-16.2c0-2.74-.67-4.87-2.02-6.41-1.34-1.54-3.22-2.3-5.62-2.3-3.65,0-6.48,1.07-8.5,3.2-2.02,2.14-3.02,5.12-3.02,8.96v12.74c0,1.34-.43,2.4-1.3,3.17-.86.77-2.02,1.15-3.46,1.15s-2.64-.38-3.46-1.15Z"/>
          <path class="cls-3" d="M398.01,183.55c-3.24-1.51-5.77-3.66-7.6-6.44-1.83-2.78-2.74-6-2.74-9.65s.91-6.86,2.74-9.65c1.82-2.78,4.36-4.93,7.6-6.44s6.95-2.27,11.12-2.27,7.88.76,11.12,2.27,5.77,3.66,7.6,6.44c1.82,2.78,2.74,6,2.74,9.65s-.91,6.87-2.74,9.65c-1.82,2.78-4.36,4.93-7.6,6.44-3.24,1.51-6.95,2.27-11.12,2.27s-7.88-.76-11.12-2.27ZM417.89,175.45c2.14-1.92,3.2-4.58,3.2-7.99s-1.07-6.07-3.2-7.99c-2.14-1.92-5.05-2.88-8.75-2.88s-6.61.96-8.75,2.88-3.2,4.58-3.2,7.99,1.07,6.07,3.2,7.99c2.14,1.92,5.05,2.88,8.75,2.88s6.61-.96,8.75-2.88Z"/>
          <path class="cls-3" d="M436.64,184.67c-.82-.77-1.22-1.82-1.22-3.17v-28.08c0-1.39.4-2.46,1.19-3.2s1.91-1.12,3.35-1.12,2.57.38,3.38,1.15c.82.77,1.22,1.83,1.22,3.17v2.09c3.41-4.27,8.06-6.41,13.97-6.41,4.61,0,8.24,1.45,10.91,4.36,2.66,2.91,4,6.85,4,11.84v16.2c0,1.34-.43,2.4-1.3,3.17-.86.77-2.02,1.15-3.46,1.15s-2.64-.38-3.46-1.15c-.82-.77-1.22-1.82-1.22-3.17v-16.2c0-2.74-.67-4.87-2.02-6.41-1.34-1.54-3.22-2.3-5.62-2.3-3.65,0-6.48,1.07-8.5,3.2-2.02,2.14-3.02,5.12-3.02,8.96v12.74c0,1.34-.43,2.4-1.3,3.17-.86.77-2.02,1.15-3.46,1.15s-2.64-.38-3.46-1.15Z"/>
          <path class="cls-3" d="M480.13,179.12c-.77-1.01-1.15-1.92-1.15-2.74,0-1.15.6-2.16,1.8-3.02.82-.53,1.61-.79,2.38-.79,1.06,0,2.04.46,2.95,1.37,1.63,1.63,3.23,2.8,4.79,3.49,1.56.7,3.49,1.04,5.8,1.04,1.97,0,3.62-.26,4.97-.79,1.34-.53,2.02-1.18,2.02-1.94,0-.96-.55-1.78-1.66-2.45-1.1-.67-3.34-1.54-6.7-2.59-5.28-1.63-9.02-3.35-11.23-5.15-2.21-1.8-3.31-4.04-3.31-6.73,0-3.02,1.3-5.4,3.89-7.13,2.59-1.73,6.17-2.59,10.73-2.59,3.5,0,6.67.53,9.5,1.58s4.9,2.47,6.19,4.25c.62.82.94,1.63.94,2.45,0,1.15-.58,2.09-1.73,2.81-.82.53-1.66.79-2.52.79-1.39,0-2.66-.58-3.82-1.73-.96-.91-2.2-1.61-3.71-2.09-1.51-.48-3.16-.72-4.93-.72-3.36,0-5.04.79-5.04,2.38,0,.62.26,1.18.79,1.66.53.48,1.48.98,2.84,1.51,1.37.53,3.52,1.25,6.44,2.16,4.7,1.44,8,3.02,9.9,4.75,1.9,1.73,2.84,4.01,2.84,6.84,0,3.02-1.39,5.46-4.18,7.31-2.78,1.85-6.7,2.77-11.74,2.77-7.73,0-13.42-2.23-17.06-6.7Z"/>
        </g>
      </g>
      <g>
        <g>
          <path class="cls-5" d="M10.63,195.76c-7.41-5.54,1.63-7.27,6.85-6.06,12.13,1.78,48.47,5.54,66.35,5.24,19.05-.44,15.97-9.96,1.23-20.15-.41-.29-.79-.55-1.1-.76-.71-.49-1.03-.71-1.13-.8-.8-1.91-66.28-40.86-69.92-55.35-.2-.81.24-1.66,1-2,2.9-1.29,7.16,2.18,9.54,3.4,3.89,2.32,9.31,5.34,13.93,7.84,17.62,8.92,39.37,20.19,59.84,23.59,17.93,1.36,8.83-16.9,2.68-25.84-.04-.9-87.63-92.03-61.38-88.79,4.77,1.92,7.68,6.7,11.16,10.37,18.37,20.68,41.56,46.35,62.29,65.65,16.91,16.61,28.05,15.23,26.42-11.08-.58-6.28-16.13-74.68-13.6-90.51,1.61-6.35,6.46-7.65,8.95-.96,1.01,3.76,4.54,26.34,6.51,37.08.06,2.47,17.96,78.91,33.16,85.74,5.68,2.07,8.55-8.5,10.22-12.64,9.41-26.21,30.24-50.72,39.26-54.51,6-3.6,9.41-1.27,5.96,5.31-22.42,32.59-31.08,74.43-21.54,111.32,6.54,36.7-3.03,56.67-27.6,61.07-12.62,2.08-25.52-.46-36.75-6.73-60.8-34.45-126.14-36.8-132.34-40.42Z"/>
          <path class="cls-6" d="M219.22,205.56c7.87-4.86-.98-7.39-6.28-6.64-12.24.69-48.77,1.21-66.55-.67-18.93-2.13-15.02-11.34.57-20.18.43-.25.83-.47,1.16-.66.75-.42,1.09-.62,1.19-.7.97-1.83,69.65-34.81,74.56-48.92.28-.79-.09-1.68-.82-2.08-2.77-1.54-7.33,1.54-9.81,2.54-4.08,1.97-9.75,4.49-14.58,6.57-18.34,7.32-41.01,16.62-61.7,18.18-17.98-.24-7.3-17.61-.37-25.98.12-.89,95.46-83.89,69.02-82.99-4.92,1.49-8.24,6-12.04,9.33-20.13,18.96-45.51,42.47-67.88,59.85-18.32,15.04-29.29,12.67-25.33-13.38,1.13-6.2,22.7-72.95,21.59-88.95-1.04-6.47-5.76-8.19-8.83-1.75-1.34,3.66-6.86,25.83-9.77,36.36-.28,2.46-24.9,77-40.64,82.46-5.84,1.56-7.77-9.22-9.06-13.49-7.05-26.95-25.62-53.21-34.27-57.78-5.66-4.12-9.26-2.1-6.41,4.76,19.44,34.45,24.35,76.9,11.57,112.79-9.78,35.98-2.01,56.72,22.07,63.28,12.39,3.2,25.46,1.81,37.2-3.44,63.62-28.92,128.91-25.46,135.41-28.51Z"/>
          <path class="cls-4" d="M93.96,145.8c1.97-5.97,7.94-10.52,14.25-10.66-6.07,1.64-10.92,5.34-14.25,10.66h0Z"/>
          <path class="cls-4" d="M74.12,133.21c-.7-4.8,1.91-10.17,6.52-12.05-3.71,3.09-5.73,7.29-6.52,12.05h0Z"/>
          <path class="cls-4" d="M110.29,168.35c2.39-4.72,8.08-7.66,13.31-6.74-5.26.6-9.69,2.9-13.31,6.74h0Z"/>
          <path class="cls-4" d="M118.75,203.32c2.7-3.26,7.82-4.39,11.61-2.47-4.21-.46-7.94.37-11.61,2.47h0Z"/>
        </g>
        <g>
          <path class="cls-4" d="M2.16,56.36c4.05-14.77,15.12-26.74,29.81-31.33.95-.29,1.91-.57,2.87-.84-.92.37-1.85.74-2.78,1.09-14.5,5.82-24.35,16.58-29.9,31.08h0Z"/>
          <path class="cls-4" d="M0,47.47c2.76-10.93,11.21-20.06,22.08-23.25.71-.21,1.42-.41,2.14-.59-.68.29-1.36.57-2.05.84C11.65,28.78,4.15,36.95,0,47.47h0Z"/>
        </g>
        <g>
          <path class="cls-4" d="M223.76,47.32c13.71,6.93,23.27,20.21,24.85,35.56.1,1,.18,1.99.26,2.99-.18-.98-.36-1.97-.52-2.95-2.83-15.42-11.43-27.24-24.59-35.6h0Z"/>
          <path class="cls-4" d="M232.94,46.97c10.19,4.9,17.48,15.02,18.45,26.35.06.74.11,1.48.16,2.22-.15-.73-.29-1.45-.42-2.18-2.14-11.21-8.68-20.2-18.19-26.39h0Z"/>
        </g>
      </g>
    </g>
  </g>
</svg>