<?xml version="1.0" encoding="UTF-8"?>
<svg id="Layer_2" data-name="Layer 2" xmlns="http://www.w3.org/2000/svg" xmlns:xlink="http://www.w3.org/1999/xlink" viewBox="0 0 535.04 259.34">
  <defs>
    <style>
      .cls-1 {
        fill: #451925;
        filter: url(#drop-shadow-1);
      }

      .cls-1, .cls-2 {
        stroke: #e6e6e6;
        stroke-miterlimit: 10;
      }

      .cls-3 {
        fill: none;
      }

      .cls-4 {
        fill: #3d5163;
      }

      .cls-2 {
        fill: #333;
      }

      .cls-5 {
        clip-path: url(#clippath);
      }

      .cls-6 {
        fill: #e6e6e6;
      }
    </style>
    <clipPath id="clippath">
      <rect class="cls-3" x="42.52" y="45.62" width="448.24" height="213.72"/>
    </clipPath>
    <filter id="drop-shadow-1" x="5.67" y="0" width="227" height="250" filterUnits="userSpaceOnUse">
      <feOffset dx="1.42" dy="2.13"/>
      <feGaussianBlur result="blur" stdDeviation="2.13"/>
      <feFlood flood-color="#333" flood-opacity=".5"/>
      <feComposite in2="blur" operator="in"/>
      <feComposite in="SourceGraphic"/>
    </filter>
  </defs>
  <g id="Layer_8" data-name="Layer 8">
    <g>
      <g>
        <g class="cls-5">
          <path class="cls-4" d="M364.62,254.49C224.91,283.55,80.78,177.8,42.52,45.62c8.64,7.04,17.38,14.77,26.36,21.53,67.16,52.95,147.57,81.13,227.54,30.95,38.52-19.12,79.85-43.86,124.35-35.82,32.16,5.11,61.59,28.28,67.59,61.44,8.29,33.42-5.64,59.32-30,84.87-24.21,25.24-59.74,38.15-93.4,45.86l-.36.07.02-.02Z"/>
        </g>
        <path class="cls-6" d="M254.24,160.65h2.66c.64,4.31,2.36,7.72,5.17,10.21,2.81,2.45,6.29,3.68,10.42,3.68,1.68,0,3.22-.2,4.63-.61,1.41-.41,2.61-.98,3.61-1.7,1-.77,1.77-1.66,2.31-2.66.54-1.04.82-2.2.82-3.47,0-1.09-.18-2.02-.54-2.79-.32-.82-.95-1.59-1.91-2.31-.95-.77-2.27-1.54-3.95-2.31-1.63-.77-3.77-1.66-6.4-2.66-5.31-2.04-9.24-4.4-11.78-7.08-2.54-2.72-3.81-5.92-3.81-9.6,0-2.13.41-4.09,1.23-5.86.82-1.77,1.95-3.29,3.4-4.56,1.5-1.27,3.27-2.25,5.31-2.93,2.09-.73,4.38-1.09,6.88-1.09,2.31,0,4.49.36,6.54,1.09,2.04.73,4.06,1.82,6.06,3.27l1.23-3.4h1.63l.75,14.71h-2.66c-1.09-3.72-2.79-6.56-5.11-8.51-2.31-2-4.99-3-8.03-3-2.81,0-5.11.7-6.88,2.11-1.72,1.36-2.59,3.13-2.59,5.31,0,.95.16,1.82.48,2.59.32.73.91,1.43,1.77,2.11.86.68,2.04,1.38,3.54,2.11,1.5.68,3.43,1.45,5.79,2.31,3.18,1.23,5.88,2.47,8.1,3.74,2.27,1.23,4.11,2.56,5.52,4.02,1.45,1.41,2.52,2.91,3.2,4.49.68,1.59,1.02,3.34,1.02,5.24,0,2.31-.5,4.43-1.5,6.33-1,1.91-2.41,3.54-4.22,4.9-1.77,1.36-3.9,2.43-6.4,3.2-2.45.77-5.17,1.16-8.17,1.16-2.72,0-5.17-.36-7.35-1.09-2.18-.77-4.43-2-6.74-3.68l-1.36,4.09h-1.63l-1.02-17.36ZM313.21,166.85c0,1.82.07,3.27.2,4.36.14,1.09.41,1.93.82,2.52.41.59,1,1,1.77,1.23.77.18,1.82.3,3.13.34v2.72h-21.45v-2.72c1.27-.05,2.29-.18,3.06-.41.82-.27,1.43-.68,1.84-1.23.45-.59.75-1.38.89-2.38.18-1.04.27-2.36.27-3.95v-8.37c0-2.63-.05-4.79-.14-6.47-.09-1.72-.2-2.91-.34-3.54-.23-1.13-.75-1.88-1.57-2.25-.77-.36-2.2-.54-4.29-.54v-2.31l15.8-2.59v25.6ZM303.2,126.81c0-1.5.5-2.75,1.5-3.74,1.04-1.04,2.29-1.57,3.74-1.57s2.75.52,3.74,1.57c1.04,1,1.57,2.25,1.57,3.74s-.52,2.7-1.57,3.74c-1,1-2.25,1.5-3.74,1.5s-2.7-.5-3.74-1.5c-1-1.04-1.5-2.29-1.5-3.74ZM335.84,170.66c1.23.09,2.29.18,3.2.27.95.09,1.84.2,2.66.34.86.09,1.7.2,2.52.34.86.09,1.77.2,2.72.34,3.54.5,6.31,1.84,8.31,4.02,2.04,2.13,3.06,4.79,3.06,7.97,0,3.86-1.59,6.79-4.77,8.78-3.18,2-7.85,3-14.03,3-5.67,0-10.05-.84-13.14-2.52-3.04-1.63-4.56-3.97-4.56-7.01,0-2.36.61-4.15,1.84-5.38,1.23-1.18,2.77-1.77,4.63-1.77,1.18,0,2.31.23,3.4.68,1.13.5,2.09,1.2,2.86,2.11-1.18.23-2.16.75-2.93,1.57-.73.86-1.09,1.86-1.09,3,0,1.82.79,3.2,2.38,4.15,1.63,1,4.02,1.5,7.15,1.5,6.81,0,10.21-2.16,10.21-6.47,0-1.54-.52-2.88-1.57-4.02-1-1.09-2.45-1.75-4.36-1.97l-11.92-1.63c-5.04-.68-7.56-2.93-7.56-6.74,0-1.86.59-3.38,1.77-4.56,1.23-1.18,2.95-2,5.17-2.45v-.27c-1.04-.41-2-.98-2.86-1.7-.82-.73-1.54-1.57-2.18-2.52-.64-.95-1.13-1.97-1.5-3.06-.32-1.13-.48-2.29-.48-3.47,0-1.68.34-3.25,1.02-4.7.73-1.5,1.7-2.77,2.93-3.81,1.27-1.04,2.75-1.86,4.43-2.45,1.72-.64,3.59-.95,5.58-.95s3.86.3,5.72.89c1.86.59,3.45,1.41,4.77,2.45,1.04-.64,1.95-1.16,2.72-1.57.77-.45,1.48-.79,2.11-1.02.68-.27,1.29-.45,1.84-.54.54-.14,1.09-.2,1.63-.2,1.72,0,3.11.39,4.15,1.16,1.09.77,1.63,1.79,1.63,3.06,0,.95-.3,1.75-.89,2.38-.59.59-1.36.89-2.31.89-.68,0-1.23-.14-1.63-.41-.41-.32-.82-.66-1.23-1.02-.36-.41-.75-.75-1.16-1.02-.41-.32-.95-.48-1.63-.48-.95,0-1.86.61-2.72,1.84.45.77.77,1.61.95,2.52.18.86.27,1.88.27,3.06,0,1.72-.27,3.31-.82,4.77-.54,1.45-1.41,2.75-2.59,3.88-1.13,1.09-2.61,2.02-4.43,2.79-1.82.77-4.02,1.29-6.6,1.57-2.18.23-3.7.52-4.56.89-.82.36-1.23.91-1.23,1.63,0,1.09,1.02,1.72,3.06,1.91ZM339.1,162.35c1.45,0,2.59-.77,3.4-2.31.82-1.54,1.23-3.7,1.23-6.47s-.41-4.97-1.23-6.47c-.82-1.54-1.97-2.31-3.47-2.31s-2.77.77-3.68,2.31c-.91,1.54-1.36,3.65-1.36,6.33s.45,4.9,1.36,6.54c.95,1.59,2.2,2.38,3.74,2.38ZM379.37,166.91c0,1.86.05,3.34.14,4.43.14,1.04.39,1.86.75,2.45.41.54,1,.91,1.77,1.09.82.18,1.91.32,3.27.41v2.72h-21.45v-2.72c1.32-.09,2.36-.23,3.13-.41.82-.18,1.43-.54,1.84-1.09.45-.54.75-1.32.89-2.31.14-1,.2-2.36.2-4.09v-8.51c0-2.68-.05-4.83-.14-6.47-.09-1.68-.2-2.81-.34-3.4-.14-.59-.32-1.07-.54-1.43-.23-.41-.57-.7-1.02-.89-.45-.23-1.02-.36-1.7-.41-.68-.09-1.54-.14-2.59-.14v-2.31l13.14-2.59.89,5.99h.27c1.5-1.91,3.27-3.38,5.31-4.43s4.29-1.57,6.74-1.57c2.91,0,5.24.41,7.01,1.23,1.82.77,3.43,2.09,4.83,3.95.77,1.04,1.45,2.41,2.04,4.09.59,1.63.89,3.9.89,6.81v9.6c0,1.86.05,3.34.14,4.43.14,1.04.39,1.86.75,2.45.41.54,1,.91,1.77,1.09.77.18,1.82.32,3.13.41v2.72h-21.31v-2.72c1.36-.05,2.43-.16,3.2-.34.82-.23,1.43-.61,1.84-1.16.41-.54.68-1.32.82-2.31.14-1.04.2-2.41.2-4.09v-9.26c0-2.31-.14-4.27-.41-5.86-.27-1.59-.73-2.86-1.36-3.81-.59-1-1.38-1.7-2.38-2.11-1-.45-2.25-.68-3.74-.68s-2.7.41-3.74,1.23c-1.04.82-1.95,1.95-2.72,3.4-.41.82-.77,1.88-1.09,3.2-.27,1.27-.41,2.61-.41,4.02v9.4ZM433.67,141.25c2.72,0,5.29.48,7.69,1.43,2.45.91,4.58,2.18,6.4,3.81,1.86,1.63,3.31,3.59,4.36,5.86,1.09,2.22,1.63,4.68,1.63,7.35s-.54,5.31-1.63,7.63c-1.04,2.31-2.5,4.31-4.36,5.99-1.82,1.68-3.95,3-6.4,3.95-2.41.95-4.97,1.43-7.69,1.43s-5.22-.45-7.63-1.36c-2.41-.95-4.52-2.27-6.33-3.95-1.82-1.68-3.25-3.68-4.29-5.99-1.04-2.36-1.57-4.93-1.57-7.69s.52-5.15,1.57-7.42c1.04-2.27,2.47-4.22,4.29-5.86,1.82-1.63,3.93-2.91,6.33-3.81,2.41-.91,4.95-1.36,7.63-1.36ZM433.67,145.19c-1.36,0-2.61.36-3.74,1.09-1.13.68-2.11,1.66-2.93,2.93-.77,1.27-1.38,2.81-1.84,4.63-.41,1.77-.61,3.74-.61,5.92s.2,4.31.61,6.13c.45,1.82,1.07,3.36,1.84,4.63.82,1.27,1.77,2.27,2.86,3,1.13.68,2.41,1.02,3.81,1.02s2.68-.34,3.81-1.02c1.18-.73,2.18-1.72,3-3,.82-1.32,1.45-2.88,1.91-4.7.45-1.82.68-3.84.68-6.06s-.23-4.15-.68-5.92c-.45-1.77-1.09-3.29-1.91-4.56-.82-1.32-1.82-2.31-3-3-1.13-.73-2.41-1.09-3.81-1.09ZM473.78,166.91c0,1.86.05,3.34.14,4.43.14,1.04.39,1.86.75,2.45.41.54,1,.91,1.77,1.09.82.18,1.91.32,3.27.41v2.72h-21.45v-2.72c1.32-.09,2.36-.23,3.13-.41.82-.18,1.43-.54,1.84-1.09.45-.54.75-1.32.89-2.31.14-1,.2-2.36.2-4.09v-8.51c0-2.68-.05-4.83-.14-6.47-.09-1.68-.2-2.81-.34-3.4-.14-.59-.32-1.07-.54-1.43-.23-.41-.57-.7-1.02-.89-.45-.23-1.02-.36-1.7-.41-.68-.09-1.54-.14-2.59-.14v-2.31l13.14-2.59.89,5.99h.27c1.5-1.91,3.27-3.38,5.31-4.43s4.29-1.57,6.74-1.57c2.91,0,5.24.41,7.01,1.23,1.82.77,3.43,2.09,4.83,3.95.77,1.04,1.45,2.41,2.04,4.09.59,1.63.89,3.9.89,6.81v9.6c0,1.86.05,3.34.14,4.43.14,1.04.39,1.86.75,2.45.41.54,1,.91,1.77,1.09.77.18,1.82.32,3.13.41v2.72h-21.31v-2.72c1.36-.05,2.43-.16,3.2-.34.82-.23,1.43-.61,1.84-1.16.41-.54.68-1.32.82-2.31.14-1.04.2-2.41.2-4.09v-9.26c0-2.31-.14-4.27-.41-5.86-.27-1.59-.73-2.86-1.36-3.81-.59-1-1.38-1.7-2.38-2.11-1-.45-2.25-.68-3.74-.68s-2.7.41-3.74,1.23c-1.04.82-1.95,1.95-2.72,3.4-.41.82-.77,1.88-1.09,3.2-.27,1.27-.41,2.61-.41,4.02v9.4ZM511.54,178.01h-2.11v-12.39h2.86c.77,3.27,1.88,5.65,3.34,7.15s3.34,2.25,5.65,2.25c1.68,0,2.97-.34,3.88-1.02.95-.73,1.43-1.7,1.43-2.93s-.57-2.5-1.7-3.68c-1.13-1.23-2.97-2.52-5.52-3.88-3.45-1.86-5.92-3.7-7.42-5.52-1.5-1.86-2.25-3.95-2.25-6.26,0-1.5.27-2.88.82-4.15.59-1.32,1.36-2.45,2.31-3.4,1-.95,2.18-1.68,3.54-2.18,1.36-.54,2.84-.82,4.43-.82,1.41,0,2.79.2,4.15.61,1.41.41,2.63.98,3.68,1.7l1.23-1.63h1.77v10.28h-2.66c-1.04-2.59-2.13-4.45-3.27-5.58-1.09-1.13-2.43-1.7-4.02-1.7-1.27,0-2.29.34-3.06,1.02-.73.68-1.09,1.59-1.09,2.72,0,1.27.54,2.47,1.63,3.61,1.13,1.13,3,2.38,5.58,3.74,1.82,1,3.38,1.97,4.7,2.93,1.32.95,2.38,1.93,3.2,2.93.82.95,1.41,1.97,1.77,3.06.41,1.04.61,2.18.61,3.4,0,1.59-.3,3.02-.89,4.29-.59,1.27-1.43,2.36-2.52,3.27-1.09.91-2.41,1.61-3.95,2.11-1.5.5-3.18.75-5.04.75s-3.77-.25-5.45-.75c-1.68-.54-3.06-1.32-4.15-2.31l-1.5,2.38Z"/>
      </g>
      <g>
        <g>
          <path class="cls-2" d="M10.63,196.31c-7.41-5.54,1.63-7.27,6.85-6.06,12.13,1.78,48.47,5.54,66.35,5.24,19.05-.44,15.97-9.96,1.23-20.15-.41-.29-.79-.55-1.1-.76-.71-.49-1.03-.71-1.13-.8-.8-1.91-66.28-40.86-69.92-55.35-.2-.81.24-1.66,1-2,2.9-1.29,7.16,2.18,9.54,3.4,3.89,2.32,9.31,5.34,13.93,7.84,17.62,8.92,39.37,20.19,59.84,23.59,17.93,1.36,8.83-16.9,2.68-25.84-.04-.9-87.63-92.03-61.38-88.79,4.77,1.92,7.68,6.7,11.16,10.37,18.37,20.68,41.56,46.35,62.29,65.65,16.91,16.61,28.05,15.23,26.42-11.08-.58-6.28-16.13-74.68-13.6-90.51,1.61-6.35,6.46-7.65,8.95-.96,1.01,3.76,4.54,26.34,6.51,37.08.06,2.47,17.96,78.91,33.16,85.74,5.68,2.07,8.55-8.5,10.22-12.64,9.41-26.21,30.24-50.72,39.26-54.51,6-3.6,9.41-1.27,5.96,5.31-22.42,32.59-31.08,74.43-21.54,111.32,6.54,36.7-3.03,56.67-27.6,61.07-12.62,2.08-25.52-.46-36.75-6.73-60.8-34.45-126.14-36.8-132.34-40.42Z"/>
          <path class="cls-1" d="M219.22,206.11c7.87-4.86-.98-7.39-6.28-6.64-12.24.69-48.77,1.21-66.55-.67-18.93-2.13-15.02-11.34.57-20.18.43-.25.83-.47,1.16-.66.75-.42,1.09-.62,1.19-.7.97-1.83,69.65-34.81,74.56-48.92.28-.79-.09-1.68-.82-2.08-2.77-1.54-7.33,1.54-9.81,2.54-4.08,1.97-9.75,4.49-14.58,6.57-18.34,7.32-41.01,16.62-61.7,18.18-17.98-.24-7.3-17.61-.37-25.98.12-.89,95.46-83.89,69.02-82.99-4.92,1.49-8.24,6-12.04,9.33-20.13,18.96-45.51,42.47-67.88,59.85-18.32,15.04-29.29,12.67-25.33-13.38,1.13-6.2,22.7-72.95,21.59-88.95-1.04-6.47-5.76-8.19-8.83-1.75-1.34,3.66-6.86,25.83-9.77,36.36-.28,2.46-24.9,77-40.64,82.46-5.84,1.56-7.77-9.22-9.06-13.49-7.05-26.95-25.62-53.21-34.27-57.78-5.66-4.12-9.26-2.1-6.41,4.76,19.44,34.45,24.35,76.9,11.57,112.79-9.78,35.98-2.01,56.72,22.07,63.28,12.39,3.2,25.46,1.81,37.2-3.44,63.62-28.92,128.91-25.46,135.41-28.51Z"/>
          <path class="cls-6" d="M93.96,146.35c1.97-5.97,7.94-10.52,14.25-10.66-6.07,1.64-10.92,5.34-14.25,10.66h0Z"/>
          <path class="cls-6" d="M74.12,133.76c-.7-4.8,1.91-10.17,6.52-12.05-3.71,3.09-5.73,7.29-6.52,12.05h0Z"/>
          <path class="cls-6" d="M110.29,168.9c2.39-4.72,8.08-7.66,13.31-6.74-5.26.6-9.69,2.9-13.31,6.74h0Z"/>
          <path class="cls-6" d="M118.75,203.87c2.7-3.26,7.82-4.39,11.61-2.47-4.21-.46-7.94.37-11.61,2.47h0Z"/>
        </g>
        <g>
          <path class="cls-6" d="M2.16,56.91c4.04-14.77,15.12-26.74,29.81-31.33.95-.29,1.91-.57,2.87-.84-.92.37-1.85.74-2.78,1.09-14.5,5.82-24.35,16.58-29.9,31.08h0Z"/>
          <path class="cls-6" d="M0,48.02c2.76-10.93,11.21-20.06,22.08-23.25.71-.21,1.42-.41,2.14-.59-.68.29-1.36.57-2.05.84C11.65,29.33,4.15,37.5,0,48.02h0Z"/>
        </g>
        <g>
          <path class="cls-6" d="M223.76,47.87c13.71,6.93,23.27,20.21,24.85,35.56.1,1,.18,1.99.26,2.99-.18-.98-.36-1.97-.52-2.95-2.83-15.42-11.43-27.24-24.59-35.6h0Z"/>
          <path class="cls-6" d="M232.94,47.52c10.19,4.9,17.48,15.02,18.45,26.35.06.74.11,1.48.16,2.22-.15-.73-.29-1.45-.42-2.18-2.14-11.21-8.68-20.2-18.19-26.39h0Z"/>
        </g>
      </g>
    </g>
  </g>
</svg>