<svg width="573" height="370" viewBox="0 0 573 370" fill="none" xmlns="http://www.w3.org/2000/svg">
<path d="M81.0278 159.235C77.6074 153.795 59.0914 123.059 68.7716 88.2799C78.7733 52.3442 112.48 35.0755 125.606 28.3508C170.18 5.51575 186.4 26.8324 274.907 10.4082C299.979 5.75595 318.114 0.439362 349.748 0.0791168C380.559 -0.271439 404.854 -0.195908 420.798 16.9178C439.579 37.0782 434.584 67.8 433.781 72.7408C429.979 96.126 415.993 113.821 394.986 132.416C360.67 162.793 300.421 216.125 210.586 213.319C185.783 212.546 113.119 210.278 81.0278 159.235Z" fill="#D3E1CE"/>
<path d="M500.726 61.5296C441.905 20.8138 348.73 7.14563 264.444 37.0908C201.815 59.341 211.997 81.5466 140.274 104.455C88.966 120.845 58.5483 117.531 30.2843 146.602C26.3158 150.685 -4.93284 183.741 0.670379 222.88C6.87982 266.261 54.4384 289.726 104.17 314.263C128.185 326.113 187.014 352.231 270.487 356.889C334.981 360.487 387.376 363.412 427.232 329.967C447.618 312.857 443.073 304.403 482.272 263.559C518.946 225.348 530.208 225.162 541.409 201.67C542.354 199.689 563.752 152.926 541.707 106.696C536.443 95.6602 526.029 79.0443 500.726 61.5296Z" fill="#E8DFCA"/>
<path d="M379.413 30.0582C346.915 30.0582 314.555 35.5395 284.317 46.283C254.54 56.8619 240.88 67.6383 227.667 78.0603C212.984 89.6425 197.803 101.618 160.177 113.638C144.192 118.743 130.133 121.956 117.729 124.794C89.6919 131.203 69.4347 135.834 49.8031 156.023C43.8513 162.145 14.433 194.636 19.9374 233.079C26.2166 276.945 73.6881 300.367 123.945 325.164C173.903 349.814 231.539 364.588 290.619 367.884C356.13 371.539 407.876 374.429 448.011 340.745C457.597 332.704 461.693 326.605 467.362 318.164C473.631 308.834 482.213 296.057 503.123 274.27C518.056 258.709 528.55 249.657 536.981 242.382C549.061 231.96 555.714 226.219 562.431 212.137C562.675 211.621 568.474 199.323 571.28 180.985C574.819 157.865 571.863 135.52 562.729 116.365C554.61 99.3383 541.103 84.4441 521.438 70.8322C491.632 50.2011 453.936 36.7577 412.424 31.9563C401.46 30.6877 390.426 30.0582 379.413 30.0582ZM345.644 368.142C328.535 368.142 310.243 367.121 290.722 366.031C231.889 362.748 174.501 348.039 124.766 323.498C74.9605 298.924 27.9151 275.711 21.7754 232.814C16.3949 195.23 45.2884 163.329 51.1357 157.315C70.3818 137.519 90.4163 132.938 118.144 126.601C130.584 123.758 144.684 120.535 160.744 115.404C198.69 103.284 214.009 91.2017 228.819 79.5168C241.914 69.1878 255.453 58.5082 284.941 48.03C314.975 37.3601 347.132 31.9137 379.413 31.9118C390.36 31.9118 401.314 32.5374 412.215 33.7982C453.425 38.5647 490.83 51.8978 520.384 72.3564C539.776 85.7786 553.078 100.435 561.056 117.161C570.157 136.246 572.981 157.625 569.448 180.7C566.682 198.771 560.998 210.829 560.757 211.335C554.209 225.065 547.661 230.717 535.772 240.974C527.758 247.888 516.782 257.359 501.787 272.982C480.765 294.885 472.13 307.74 465.824 317.126C460.238 325.441 456.204 331.447 446.82 339.32C419.112 362.575 385.595 368.142 345.644 368.142Z" fill="#D3E1CE"/>
</svg>
